<?xml version="1.0" encoding="UTF-8" standalone="no"?><!DOCTYPE svg PUBLIC "-//W3C//DTD SVG 1.1//EN" "http://www.w3.org/Graphics/SVG/1.1/DTD/svg11.dtd"><svg width="100%" height="100%" viewBox="0 0 289 161" version="1.1" xmlns="http://www.w3.org/2000/svg" xmlns:xlink="http://www.w3.org/1999/xlink" xml:space="preserve" xmlns:serif="http://www.serif.com/" style="fill-rule:evenodd;clip-rule:evenodd;stroke-linecap:round;stroke-linejoin:round;stroke-miterlimit:1.5;"><g><ellipse cx="144.169" cy="80.434" rx="144.169" ry="80.434" style="fill:#f7f7f7;"/><path d="M240.685,83.17c1.306,-5.282 1.292,-5.22 2.606,-10.443c2.345,4.009 2.263,3.994 4.544,7.989c8.376,-3.351 8.838,-2.972 9.315,-3.097c-3.783,4.619 -3.732,4.595 -7.88,8.914c-0.79,0.823 -1.04,1.083 -1.807,14.147c-3.254,-4.305 -3.462,-5.806 -5.669,-9.449c-1.117,-1.844 -1.676,-0.839 -9.814,-0.054c3.086,-2.865 6.776,-6.442 7.36,-7.008c0.085,-0.083 0.085,-0.07 1.149,-0.94" style="fill:none;stroke:#000;stroke-width:1.53px;"/><path d="M70.522,57.213c0,0 3.578,2.471 8.927,2.696" style="fill:none;stroke:#000;stroke-width:1.66px;"/><path d="M199.122,62.931c0,0 1.592,-1.02 6.562,-3.022" style="fill:none;stroke:#000;stroke-width:1.66px;"/><ellipse cx="88.466" cy="42.305" rx="10.266" ry="10.335" style="fill:#070707;"/><ellipse cx="189.692" cy="48.621" rx="10.266" ry="10.335" style="fill:#070707;"/><path d="M58.917,36.018c0,0 39.135,-10.955 49.098,7.265" style="fill:none;stroke:#000;stroke-width:2.76px;"/><path d="M214.465,43.494c0,0 -30.009,-13.423 -49.546,2.83" style="fill:none;stroke:#000;stroke-width:2.76px;"/><path d="M142.24,98.341c-6.425,-2.589 -17.844,2.111 -12.849,15.084c1.652,4.289 11.095,8.415 16.881,5.032c16.689,-9.759 -2.421,-19.467 -4.032,-20.116Z" style="fill:none;stroke:#000;stroke-width:2.5px;"/><path d="M37.961,81.651l7.019,-8.924c-0.206,5.799 -0.548,5.723 0.017,10.851c3.24,1.182 6.481,2.363 9.721,3.545c-7.829,3.445 -11.433,3.359 -14.363,4.053c-1.94,3.965 -3.88,7.931 -5.821,11.896c-0.076,-0.566 -0.833,-2.712 -0.883,-10.189c-0.047,-6.967 -1.705,-6.438 -7.393,-10.414c6.728,-1.348 6.059,-0.254 11.703,-0.818Z" style="fill:none;stroke:#000;stroke-width:1.67px;"/><path d="M95.213,38.99c-0.02,0.846 2.976,8.066 -2.184,5.205c-1.825,-1.012 -4.072,-4.031 -2.93,-6.106c1.014,-1.842 4.401,-1.273 5.114,0.901Z" style="fill:#fff;stroke:#fff;stroke-width:1.05px;"/><path d="M81.887,46.984c0.365,-0.25 3.782,-2.203 1.721,-3.846c-2.224,-1.773 -2.468,2.882 -1.924,3.718" style="fill:#fff;stroke:#fff;stroke-width:0.83px;"/><path d="M86.283,45.716c-3.442,2.578 -1.819,3.289 -1.65,3.383c1.639,0.902 2.735,1.396 2.45,-0.435c-0.12,-0.766 -0.208,-2.355 -0.8,-2.947Z" style="fill:#fff;stroke:#fff;stroke-width:0.83px;"/><path d="M183.285,43.977c-0.579,1.765 -1.976,6.066 2.184,6.205c2.085,0.07 4.072,-4.031 2.93,-6.106c-1.014,-1.842 -4.401,-2.273 -5.114,-0.099Z" style="fill:#fff;stroke:#fff;stroke-width:1.05px;"/><path d="M195.611,52.306c-0.365,-0.25 -3.782,-2.203 -1.721,-3.846c2.224,-1.773 3.468,2.882 1.924,3.718" style="fill:#fff;stroke:#fff;stroke-width:0.83px;"/><path d="M191.215,51.038c2.442,0.578 1.819,3.289 1.65,3.383c-1.639,0.902 -3.459,1.396 -3.173,-0.435c0.12,-0.766 0.59,-3.168 1.523,-2.947Z" style="fill:#fff;stroke:#fff;stroke-width:0.83px;"/></g></svg>