<?xml version="1.0" encoding="UTF-8" standalone="no"?><!DOCTYPE svg PUBLIC "-//W3C//DTD SVG 1.1//EN" "http://www.w3.org/Graphics/SVG/1.1/DTD/svg11.dtd"><svg width="927px" height="987px" viewBox="0 0 927 987" version="1.1" xmlns="http://www.w3.org/2000/svg" xmlns:xlink="http://www.w3.org/1999/xlink" xmlns:serif="http://www.serif.com/" xml:space="preserve" style="fill-rule:evenodd;clip-rule:evenodd;stroke-linecap:round;stroke-linejoin:round;stroke-miterlimit:1.5;"><path d="M378.497,1.049c34.778,16.319 94.337,313.67 94.337,313.67c0,0 270.825,-185.859 309.113,-189.473c63.134,-5.959 -137.004,308.525 -137.004,308.525c0,0 276.629,1.828 281.173,41.5c4.607,40.216 -323.595,137.612 -323.595,137.612c0,0 17.002,323.01 -16.303,342.239c-33.306,19.229 -171.818,-278.865 -171.818,-278.865c0,0 -226.628,271.924 -254.864,245.815c-37.283,-34.474 81.988,-376.799 81.988,-376.799c0,0 -247.766,-118.937 -241.402,-154.846c6.522,-36.801 293.465,-41.5 293.465,-41.5c0,0 35.35,-371.135 84.912,-347.879Z" style="fill:#012ded;"/><g><ellipse cx="422.989" cy="478.505" rx="144.169" ry="80.434" style="fill:#f7f7f7;"/><path d="M519.505,481.241c1.306,-5.282 1.292,-5.22 2.606,-10.443c2.345,4.009 2.263,3.994 4.544,7.989c8.376,-3.351 8.838,-2.972 9.315,-3.097c-3.783,4.619 -3.732,4.595 -7.88,8.914c-0.79,0.823 -1.04,1.083 -1.807,14.147c-3.254,-4.305 -3.462,-5.806 -5.669,-9.449c-1.117,-1.844 -1.676,-0.839 -9.814,-0.054c3.086,-2.865 6.776,-6.442 7.36,-7.008c0.085,-0.083 0.085,-0.07 1.149,-0.94" style="fill:none;stroke:#000;stroke-width:1.53px;"/><path d="M349.342,455.284c0,0 3.578,2.471 8.927,2.696" style="fill:none;stroke:#000;stroke-width:1.66px;"/><path d="M477.941,461.002c0,0 1.592,-1.02 6.562,-3.022" style="fill:none;stroke:#000;stroke-width:1.66px;"/><ellipse cx="367.286" cy="440.377" rx="10.266" ry="10.335" style="fill:#070707;"/><ellipse cx="468.512" cy="446.692" rx="10.266" ry="10.335" style="fill:#070707;"/><path d="M337.737,434.089c0,0 39.135,-10.955 49.098,7.265" style="fill:none;stroke:#000;stroke-width:2.76px;"/><path d="M493.284,441.566c0,0 -30.009,-13.423 -49.546,2.83" style="fill:none;stroke:#000;stroke-width:2.76px;"/><path d="M316.781,479.722l7.019,-8.924c-0.206,5.799 -0.548,5.723 0.017,10.851c3.24,1.182 6.481,2.363 9.721,3.545c-7.829,3.445 -11.433,3.359 -14.363,4.053c-1.94,3.965 -3.88,7.931 -5.821,11.896c-0.076,-0.566 -0.833,-2.712 -0.883,-10.189c-0.047,-6.967 -1.705,-6.438 -7.393,-10.414c6.728,-1.348 6.059,-0.254 11.703,-0.818Z" style="fill:none;stroke:#000;stroke-width:1.67px;"/><path d="M374.032,437.061c-0.02,0.846 2.976,8.066 -2.184,5.205c-1.825,-1.012 -4.072,-4.031 -2.93,-6.106c1.014,-1.842 4.401,-1.273 5.114,0.901Z" style="fill:#fff;stroke:#fff;stroke-width:1.05px;"/><path d="M360.707,445.055c0.365,-0.25 3.782,-2.203 1.721,-3.846c-2.224,-1.773 -2.468,2.882 -1.924,3.718" style="fill:#fff;stroke:#fff;stroke-width:0.83px;"/><path d="M365.103,443.788c-3.442,2.578 -1.819,3.289 -1.65,3.383c1.639,0.902 2.735,1.396 2.45,-0.435c-0.12,-0.766 -0.208,-2.355 -0.8,-2.947Z" style="fill:#fff;stroke:#fff;stroke-width:0.83px;"/><path d="M462.105,442.048c-0.579,1.765 -1.976,6.066 2.184,6.205c2.085,0.07 4.072,-4.031 2.93,-6.106c-1.014,-1.842 -4.401,-2.273 -5.114,-0.099Z" style="fill:#fff;stroke:#fff;stroke-width:1.05px;"/><path d="M474.43,450.377c-0.365,-0.25 -3.782,-2.203 -1.721,-3.846c2.224,-1.773 3.468,2.882 1.924,3.718" style="fill:#fff;stroke:#fff;stroke-width:0.83px;"/><path d="M470.035,449.11c2.442,0.578 1.819,3.289 1.65,3.383c-1.639,0.902 -3.459,1.396 -3.173,-0.435c0.12,-0.766 0.59,-3.168 1.523,-2.947Z" style="fill:#fff;stroke:#fff;stroke-width:0.83px;"/></g><path d="M378.497,502.44c5.277,21.713 70.299,18.064 76.999,0.614" style="fill:none;stroke:#000;stroke-width:2.76px;"/></svg>