<?xml version="1.0" encoding="UTF-8" standalone="no"?><!DOCTYPE svg PUBLIC "-//W3C//DTD SVG 1.1//EN" "http://www.w3.org/Graphics/SVG/1.1/DTD/svg11.dtd"><svg width="927px" height="984px" version="1.1" xmlns="http://www.w3.org/2000/svg" xmlns:xlink="http://www.w3.org/1999/xlink" xml:space="preserve" xmlns:serif="http://www.serif.com/" style="fill-rule:evenodd;clip-rule:evenodd;stroke-linecap:round;stroke-linejoin:round;stroke-miterlimit:1.5;"><path d="M433.953,1.01c34.778,16.319 38.881,328.67 38.881,328.67c0,0 270.825,-185.859 309.113,-189.473c63.134,-5.959 -137.004,308.525 -137.004,308.525c0,0 276.629,1.828 281.173,41.5c4.607,40.216 -323.595,137.612 -323.595,137.612c0,0 -11.998,336.01 -45.303,355.239c-33.306,19.229 -142.818,-291.865 -142.818,-291.865c0,0 -163.628,289.924 -191.864,263.815c-37.283,-34.474 18.988,-394.799 18.988,-394.799c0,0 -247.766,-118.937 -241.402,-154.846c6.522,-36.801 293.465,-41.5 293.465,-41.5c0,0 90.806,-386.135 140.368,-362.879Z" style="fill:#012ded;"/><g><ellipse cx="437.754" cy="493.44" rx="144.169" ry="80.434" style="fill:#f7f7f7;"/><path d="M419.809,528.14c3.797,-11.023 21.43,-8.976 21.121,2.48c-0.159,5.871 -4.24,4.411 -4.314,4.376c-5.542,-2.614 -7.293,-1.847 -10.24,-0.923c-0.516,0.162 -2.998,1.501 -5.487,-0.381c-2.205,-1.668 -1.238,-5.106 -1.081,-5.552Z" style="stroke:#000;stroke-width:2.5px;"/><path d="M364.107,470.219c0,0 3.578,2.471 8.927,2.696" style="fill:none;stroke:#000;stroke-width:1.66px;"/><path d="M489.707,475.937c0,0 4.592,-0.02 9.562,-3.022" style="fill:none;stroke:#000;stroke-width:1.66px;"/><path d="M352.502,455.024c0,0 33.135,15.045 49.098,7.265" style="fill:none;stroke:#000;stroke-width:2.76px;"/><path d="M508.05,462.5c0,0 -30.009,8.577 -49.546,2.83" style="fill:none;stroke:#000;stroke-width:2.76px;"/></g><path d="M513.688,531.233c2.251,-0.248 -1.464,-9.721 7.309,-13.846c2.618,-1.231 11.68,-2.481 11.794,14.246c4.107,-1.083 23.412,-4.032 23.998,8.186c0.584,12.184 -15.025,12.528 -21.64,8.227c-0.107,2.261 0.559,16.393 -10.096,15.358c-1.044,-0.101 -5.327,-1.12 -7.3,-6.61c-2.332,-6.491 -0.706,-9.317 -2.208,-9.801c-0.14,-0.045 -8.293,-5.059 -8.416,-5.135c-7.758,-4.809 -13.673,-8.085 -19.15,-14.793c12.992,3.197 20.01,4.796 25.71,4.167Z" style="fill:none;stroke:#000;stroke-width:1.67px;"/></svg>